HIERARCHY
ROOT joint_Root
{
	OFFSET 0.0 0.0 0.0
	CHANNELS 6 Xposition Yposition Zposition Zrotation Xrotation Yrotation 
	JOINT Hips
	{
		OFFSET -0.726466 93.3139 -2.00062
		CHANNELS 6 Xposition Yposition Zposition Zrotation Xrotation Yrotation 
		JOINT Spine
		{
			OFFSET 15.7357 0.0 0.0
			CHANNELS 6 Xposition Yposition Zposition Zrotation Xrotation Yrotation 
			JOINT Chest
			{
				OFFSET 8.98455 -0.406207 0.0
				CHANNELS 6 Xposition Yposition Zposition Zrotation Xrotation Yrotation 
				JOINT Neck
				{
					OFFSET 16.3773 0.0 0.0
					CHANNELS 6 Xposition Yposition Zposition Zrotation Xrotation Yrotation 
					JOINT Head
					{
						OFFSET 6.45672 0.0 0.0
						CHANNELS 6 Xposition Yposition Zposition Zrotation Xrotation Yrotation 
						End Site
						{
							OFFSET 0.0 0.0 0.0
						}
					}
				}
				JOINT Shoulder_L
				{
					OFFSET 12.9942 -0.242716 4.98039
					CHANNELS 6 Xposition Yposition Zposition Zrotation Xrotation Yrotation 
					JOINT UpperArm_L
					{
						OFFSET 5.34809 0.0 0.0
						CHANNELS 6 Xposition Yposition Zposition Zrotation Xrotation Yrotation 
						JOINT LowerArm_L
						{
							OFFSET 24.3286 1.87007e-05 0.0
							CHANNELS 6 Xposition Yposition Zposition Zrotation Xrotation Yrotation 
							JOINT Hand_L
							{
								OFFSET 22.2916 0.0 0.0
								CHANNELS 6 Xposition Yposition Zposition Zrotation Xrotation Yrotation 
								End Site
								{
									OFFSET 0.0 0.0 0.0
								}
							}
						}
					}
				}
				JOINT Shoulder_R
				{
					OFFSET 12.9945 -0.242716 -4.98039
					CHANNELS 6 Xposition Yposition Zposition Zrotation Xrotation Yrotation 
					JOINT UpperArm_R
					{
						OFFSET -5.34813 0.0 0.0
						CHANNELS 6 Xposition Yposition Zposition Zrotation Xrotation Yrotation 
						JOINT LowerArm_R
						{
							OFFSET -24.3289 0.000322201 0.0
							CHANNELS 6 Xposition Yposition Zposition Zrotation Xrotation Yrotation 
							JOINT Hand_R
							{
								OFFSET -22.2915 -0.000108084 0.0
								CHANNELS 6 Xposition Yposition Zposition Zrotation Xrotation Yrotation 
								End Site
								{
									OFFSET 0.0 0.0 0.0
								}
							}
						}
					}
				}
			}
		}
		JOINT UpperLeg_L
		{
			OFFSET -2.19248 -6.46944 0.0
			CHANNELS 6 Xposition Yposition Zposition Zrotation Xrotation Yrotation 
			JOINT LowerLeg_L
			{
				OFFSET 39.0811 0.0 -1.23785e-05
				CHANNELS 6 Xposition Yposition Zposition Zrotation Xrotation Yrotation 
				JOINT Foot_L
				{
					OFFSET 40.9854 0.0 -1.26872e-05
					CHANNELS 6 Xposition Yposition Zposition Zrotation Xrotation Yrotation 
					JOINT Toes_L
					{
						OFFSET 11.7543 0.0 0.0
						CHANNELS 6 Xposition Yposition Zposition Zrotation Xrotation Yrotation 
						End Site
						{
							OFFSET 0.0 0.0 0.0
						}
					}
				}
			}
		}
		JOINT UpperLeg_R
		{
			OFFSET -2.19251 6.46944 0.0
			CHANNELS 6 Xposition Yposition Zposition Zrotation Xrotation Yrotation 
			JOINT LowerLeg_R
			{
				OFFSET -39.0811 -0.00228153 -0.0401928
				CHANNELS 6 Xposition Yposition Zposition Zrotation Xrotation Yrotation 
				JOINT Foot_R
				{
					OFFSET -40.9854 0.0 0.0
					CHANNELS 6 Xposition Yposition Zposition Zrotation Xrotation Yrotation 
					JOINT Toes_R
					{
						OFFSET -11.7543 0.0 0.0
						CHANNELS 6 Xposition Yposition Zposition Zrotation Xrotation Yrotation 
						End Site
						{
							OFFSET 0.0 0.0 0.0
						}
					}
				}
			}
		}
	}
}
MOTION
Frames:	7
Frame Time:	0.0333333
0.000000 0.000000 0.000000 0.000000 0.000000 -0.000000 -1.233790 92.579000 -0.560652 88.289200 -2.246180 1.891160 15.735700 0.000005 -0.000001 72.117500 86.301100 -69.843800 8.984550 -0.406207 -0.000000 -0.673143 -2.438450 4.531420 16.377300 -0.000001 -0.000001 0.348733 -0.433301 -3.796710 6.456720 -0.000001 -0.000000 1.360670 -1.316970 -1.082120 12.994200 -0.242716 4.980390 -86.175700 -7.748860 -63.629200 5.348090 -0.000007 -0.000001 -71.472700 -59.717600 -100.682000 24.328600 0.000019 0.000005 3.123830 4.945010 -32.327700 22.291600 -0.000001 0.000005 25.369300 5.478700 -5.700330 12.994500 -0.242716 -4.980390 88.911800 3.364630 -72.066600 -5.348130 -0.000001 -0.000004 -64.669200 35.188800 -16.845700 -24.328900 0.000322 -0.000009 2.583730 6.874260 -20.664900 -22.291500 -0.000108 -0.000004 9.420990 5.388290 -2.560540 -2.192480 -6.469440 -0.000000 -175.536000 -9.198490 -3.516320 39.081100 -0.000007 -0.000012 -0.099672 0.265847 20.552200 40.985400 -0.000006 -0.000013 -0.828783 2.741820 -65.125400 11.754300 -0.000000 0.000003 -0.000060 -0.000667 -16.603400 -2.192510 6.469440 -0.000001 -179.343000 13.948900 178.560000 -39.081100 -0.002282 -0.040193 -0.016087 0.061444 17.533100 -40.985400 0.000008 0.000006 4.246590 7.583620 -64.908800 -11.754300 -0.000006 -0.000006 -0.008215 -0.089781 -20.229300
0.000000 0.000000 0.000000 0.000000 0.000000 -0.000000 -1.245190 92.596800 -0.600550 88.274800 -2.721110 1.790430 15.735700 0.000005 -0.000001 72.506400 86.297800 -70.091400 8.984550 -0.406207 -0.000000 -0.648715 -2.402510 4.814600 16.377300 -0.000001 -0.000001 0.432725 -0.442063 -3.630580 6.456720 -0.000001 -0.000000 1.220040 -1.339830 -1.021260 12.994200 -0.242716 4.980390 -85.887500 -8.211220 -63.278500 5.348090 -0.000007 -0.000001 -87.962500 -57.258700 -110.996000 24.328600 0.000019 0.000005 2.642810 4.939530 -28.194300 22.291600 -0.000001 0.000005 25.859400 5.293990 0.205223 12.994500 -0.242716 -4.980390 88.880500 3.448750 -72.003800 -5.348130 -0.000001 -0.000004 -64.426600 35.016900 -16.748200 -24.328900 0.000322 -0.000009 2.656100 6.947190 -20.991500 -22.291500 -0.000108 -0.000004 9.450850 5.388090 -2.554450 -2.192480 -6.469440 -0.000000 -175.537000 -9.380690 -3.507430 39.081100 -0.000007 -0.000012 -0.099518 0.267441 20.410900 40.985400 -0.000006 -0.000013 -0.891227 2.480360 -65.065600 11.754300 -0.000000 0.000003 -0.000054 -0.000601 -16.600900 -2.192510 6.469440 -0.000001 -179.271000 13.601100 178.437000 -39.081100 -0.002282 -0.040193 -0.014091 0.055405 17.450900 -40.985400 0.000008 0.000006 4.350020 7.676410 -64.823600 -11.754300 -0.000006 -0.000006 -0.007981 -0.087879 -20.151600
0.000000 0.000000 0.000000 0.000000 0.000000 -0.000000 -1.259280 92.604900 -0.634538 88.239600 -2.874160 1.655740 15.735700 0.000005 -0.000001 72.507900 86.310600 -69.992700 8.984550 -0.406207 -0.000000 -0.670556 -2.402480 5.014450 16.377300 -0.000001 -0.000001 0.549898 -0.549246 -3.404400 6.456720 -0.000001 -0.000000 1.145570 -1.335590 -1.111170 12.994200 -0.242716 4.980390 -85.551000 -8.784250 -63.001600 5.348090 -0.000007 -0.000001 -102.367000 -53.496900 -118.325000 24.328600 0.000019 0.000005 2.412190 4.295590 -29.359600 22.291600 -0.000001 0.000005 28.653300 5.147820 3.990950 12.994500 -0.242716 -4.980390 88.844200 3.555460 -71.979100 -5.348130 -0.000001 -0.000004 -64.294700 34.965300 -16.458200 -24.328900 0.000322 -0.000009 2.703020 7.149110 -20.782100 -22.291500 -0.000108 -0.000004 9.417740 5.387150 -2.524510 -2.192480 -6.469440 -0.000000 -175.507000 -9.498690 -3.635840 39.081100 -0.000007 -0.000012 -0.099807 0.268541 20.388300 40.985400 -0.000006 -0.000013 -0.912566 2.447830 -65.036200 11.754300 -0.000000 0.000003 -0.000060 -0.000658 -16.603100 -2.192510 6.469440 -0.000001 -179.185000 13.500400 178.284000 -39.081100 -0.002282 -0.040193 -0.013227 0.052827 17.397900 -40.985400 0.000008 0.000006 4.400990 7.754750 -64.765400 -11.754300 -0.000006 -0.000006 -0.008191 -0.089584 -20.221200
0.000000 0.000000 0.000000 0.000000 0.000000 -0.000000 -1.297900 92.604100 -0.632451 88.293300 -2.680570 1.651610 15.735700 0.000005 -0.000001 72.963400 86.327600 -70.497500 8.984550 -0.406207 -0.000000 -0.688366 -2.333290 4.915980 16.377300 -0.000001 -0.000001 0.699904 -0.682087 -3.159660 6.456720 -0.000001 -0.000000 1.208760 -1.529550 -0.798480 12.994200 -0.242716 4.980390 -85.470100 -8.892650 -62.864200 5.348090 -0.000007 -0.000001 -107.532000 -51.322400 -120.120000 24.328600 0.000019 0.000005 0.368118 0.612207 -31.094500 22.291600 -0.000001 0.000005 33.545900 5.203160 2.672230 12.994500 -0.242716 -4.980390 88.799200 3.684170 -71.933800 -5.348130 -0.000001 -0.000004 -64.561400 34.876200 -15.615500 -24.328900 0.000322 -0.000009 2.679840 7.250960 -20.354400 -22.291500 -0.000108 -0.000004 9.301430 5.383960 -2.423150 -2.192480 -6.469440 -0.000000 -175.523000 -9.474550 -3.641680 39.081100 -0.000007 -0.000012 -0.099796 0.269116 20.346200 40.985400 -0.000006 -0.000013 -0.907623 2.630490 -65.000200 11.754300 -0.000000 0.000003 -0.000057 -0.000635 -16.602200 -2.192510 6.469440 -0.000001 -179.240000 13.664900 178.313000 -39.081100 -0.002282 -0.040193 -0.018006 0.068172 17.375700 -40.985400 0.000008 0.000006 4.203070 7.730400 -64.747500 -11.754300 -0.000006 -0.000006 -0.007982 -0.087884 -20.151800
0.000000 0.000000 0.000000 0.000000 0.000000 -0.000000 -1.377450 92.595200 -0.619174 88.301100 -2.103370 1.642890 15.735700 0.000005 -0.000001 73.625400 86.349300 -71.287500 8.984550 -0.406207 -0.000000 -0.710870 -2.230800 4.660220 16.377300 -0.000001 -0.000001 0.697363 -0.834816 -3.045190 6.456720 -0.000001 -0.000000 1.461130 -1.820460 -0.313174 12.994200 -0.242716 4.980390 -85.526700 -8.795370 -62.903600 5.348090 -0.000007 -0.000001 -105.847000 -50.858500 -118.673000 24.328600 0.000019 0.000005 -2.347140 -3.561570 -33.407400 22.291600 -0.000001 0.000005 37.896200 5.301710 0.039574 12.994500 -0.242716 -4.980390 88.817900 3.626170 -71.930900 -5.348130 -0.000001 -0.000004 -65.313600 34.702200 -14.467100 -24.328900 0.000322 -0.000009 2.686170 7.562760 -19.627200 -22.291500 -0.000108 -0.000004 9.043040 5.380670 -2.319360 -2.192480 -6.469440 -0.000000 -175.480000 -9.151110 -3.773390 39.081100 -0.000007 -0.000012 -0.100297 0.269241 20.431200 40.985400 -0.000006 -0.000013 -0.914252 2.868070 -64.991300 11.754300 -0.000000 0.000003 -0.000048 -0.000544 -16.598700 -2.192510 6.469440 -0.000001 -179.219000 14.007700 178.363000 -39.081100 -0.002282 -0.040193 -0.021138 0.078297 17.351700 -40.985400 0.000008 0.000006 4.063030 7.557100 -64.766500 -11.754300 -0.000006 -0.000006 -0.008098 -0.088832 -20.190500
0.000000 0.000000 0.000000 0.000000 0.000000 -0.000000 -1.494650 92.593400 -0.616557 88.342700 -1.237270 1.697700 15.735700 0.000005 -0.000001 74.282100 86.359100 -72.155700 8.984550 -0.406207 -0.000000 -0.713281 -2.129520 4.238040 16.377300 -0.000001 -0.000001 0.749840 -0.966731 -3.026480 6.456720 -0.000001 -0.000000 1.580340 -2.119880 0.085835 12.994200 -0.242716 4.980390 -85.607400 -8.609500 -62.835700 5.348090 -0.000007 -0.000001 -102.341000 -49.618400 -117.990000 24.328600 0.000019 0.000005 -3.525370 -4.945740 -35.549600 22.291600 -0.000001 0.000005 38.668700 5.356440 -1.572690 12.994500 -0.242716 -4.980390 88.866300 3.494150 -72.011800 -5.348130 -0.000001 -0.000004 -66.125500 34.879800 -13.260100 -24.328900 0.000322 -0.000009 2.628940 7.783920 -18.734600 -22.291500 -0.000108 -0.000004 8.738020 5.376620 -2.192300 -2.192480 -6.469440 -0.000000 -175.436000 -8.694050 -3.862290 39.081100 -0.000007 -0.000012 -0.099741 0.267497 20.448900 40.985400 -0.000006 -0.000013 -0.921013 3.247860 -64.909400 11.754300 -0.000000 0.000003 -0.000054 -0.000601 -16.600900 -2.192510 6.469440 -0.000001 -179.161000 14.441000 178.486000 -39.081100 -0.002282 -0.040193 -0.019113 0.071968 17.317100 -40.985400 0.000008 0.000006 4.131390 7.111330 -64.822300 -11.754300 -0.000006 -0.000006 -0.008110 -0.088928 -20.194400
0.000000 0.000000 0.000000 0.000000 0.000000 -0.000000 -1.627430 92.590700 -0.623589 88.391100 -0.210018 1.764750 15.735700 0.000005 -0.000001 74.517500 86.351900 -72.634300 8.984550 -0.406207 -0.000000 -0.697412 -2.086290 3.752360 16.377300 -0.000001 -0.000001 0.759937 -1.036290 -3.265300 6.456720 -0.000001 -0.000000 1.644360 -2.351290 0.483524 12.994200 -0.242716 4.980390 -85.646200 -8.528500 -62.824900 5.348090 -0.000007 -0.000001 -96.567400 -49.246400 -116.976000 24.328600 0.000019 0.000005 -4.274120 -5.428940 -38.303100 22.291600 -0.000001 0.000005 36.104400 5.354710 -1.520590 12.994500 -0.242716 -4.980390 88.911300 3.389250 -72.179900 -5.348130 -0.000001 -0.000004 -66.823300 35.321800 -12.184000 -24.328900 0.000322 -0.000009 2.575920 8.106190 -17.702300 -22.291500 -0.000108 -0.000004 8.536670 5.374010 -2.111040 -2.192480 -6.469440 -0.000000 -175.385000 -8.095790 -3.964120 39.081100 -0.000007 -0.000012 -0.100832 0.270173 20.466300 40.985400 -0.000006 -0.000013 -0.929026 3.698840 -64.814500 11.754300 -0.000000 0.000003 -0.000073 -0.000783 -16.607800 -2.192510 6.469440 -0.000001 -179.098000 15.099600 178.603000 -39.081100 -0.002282 -0.040193 -0.014156 0.056033 17.328200 -40.985400 0.000008 0.000006 4.407110 6.662950 -64.940300 -11.754300 -0.000006 -0.000006 -0.007884 -0.087085 -20.119200
